<svg width="97" height="18" viewBox="0 0 97 18" fill="none" xmlns="http://www.w3.org/2000/svg">
<path d="M10.125 9.00001L12.8333 11.7083M10.125 9.00001L12.8333 6.29167M10.125 9.00001H19.875" stroke="black" stroke-opacity="0.2" stroke-linecap="round" stroke-linejoin="round"/>
<path d="M27.825 13L31.309 3.9H32.466L35.924 13H34.819L32.596 7.098C32.5353 6.93333 32.466 6.74267 32.388 6.526C32.3187 6.30067 32.2407 6.071 32.154 5.837C32.076 5.59433 31.998 5.36033 31.92 5.135C31.8507 4.90967 31.7857 4.71033 31.725 4.537H31.985C31.9157 4.75367 31.842 4.97467 31.764 5.2C31.6947 5.41667 31.621 5.63767 31.543 5.863C31.465 6.07967 31.387 6.29633 31.309 6.513C31.231 6.72967 31.153 6.94633 31.075 7.163L28.865 13H27.825ZM29.307 10.491L29.684 9.503H33.987L34.403 10.491H29.307ZM38.6546 13L35.7946 6.214H36.8736L39.1356 11.765L38.8756 11.908L41.3586 6.214H42.3986L39.3566 13H38.6546ZM46.3418 15.99C45.8391 15.99 45.3624 15.912 44.9118 15.756C44.4611 15.6 44.0884 15.405 43.7938 15.171L44.1838 14.352C44.3571 14.4907 44.5564 14.612 44.7818 14.716C45.0158 14.8287 45.2671 14.9153 45.5358 14.976C45.8044 15.0453 46.0774 15.08 46.3548 15.08C46.8574 15.08 47.2821 14.9847 47.6288 14.794C47.9841 14.612 48.2528 14.339 48.4348 13.975C48.6254 13.611 48.7208 13.1603 48.7208 12.623V11.323L48.8768 11.284C48.7988 11.6133 48.6298 11.921 48.3698 12.207C48.1098 12.4843 47.7934 12.7097 47.4208 12.883C47.0481 13.0477 46.6538 13.13 46.2378 13.13C45.6051 13.13 45.0374 12.9783 44.5348 12.675C44.0408 12.3717 43.6508 11.9557 43.3648 11.427C43.0788 10.8897 42.9358 10.283 42.9358 9.607C42.9358 8.92233 43.0788 8.31567 43.3648 7.787C43.6594 7.24967 44.0538 6.82933 44.5478 6.526C45.0418 6.22267 45.5964 6.071 46.2118 6.071C46.4804 6.071 46.7404 6.10567 46.9918 6.175C47.2431 6.23567 47.4728 6.32667 47.6808 6.448C47.8974 6.56933 48.0924 6.708 48.2658 6.864C48.4391 7.02 48.5821 7.189 48.6948 7.371C48.8161 7.553 48.9028 7.73933 48.9548 7.93L48.6818 7.891L48.7208 6.214H49.6958V12.584C49.6958 13.13 49.6178 13.611 49.4618 14.027C49.3058 14.4517 49.0761 14.807 48.7728 15.093C48.4781 15.3877 48.1228 15.6087 47.7068 15.756C47.2994 15.912 46.8444 15.99 46.3418 15.99ZM46.3548 12.194C46.8141 12.194 47.2214 12.0857 47.5768 11.869C47.9408 11.6437 48.2268 11.336 48.4348 10.946C48.6428 10.556 48.7468 10.1053 48.7468 9.594C48.7468 9.09133 48.6428 8.645 48.4348 8.255C48.2354 7.865 47.9538 7.55733 47.5898 7.332C47.2258 7.10667 46.8141 6.994 46.3548 6.994C45.8868 6.994 45.4708 7.10667 45.1068 7.332C44.7514 7.55733 44.4698 7.865 44.2618 8.255C44.0538 8.645 43.9498 9.09133 43.9498 9.594C43.9498 10.088 44.0494 10.5343 44.2488 10.933C44.4568 11.323 44.7384 11.6307 45.0938 11.856C45.4578 12.0813 45.8781 12.194 46.3548 12.194ZM53.896 13.13C53.376 13.13 52.934 13.026 52.57 12.818C52.2147 12.6013 51.9417 12.2893 51.751 11.882C51.569 11.4747 51.478 10.9677 51.478 10.361V6.214H52.466V10.166C52.466 10.6253 52.5267 11.011 52.648 11.323C52.778 11.6263 52.9687 11.856 53.22 12.012C53.48 12.168 53.7963 12.246 54.169 12.246C54.455 12.246 54.7193 12.1983 54.962 12.103C55.2047 11.999 55.417 11.8603 55.599 11.687C55.781 11.5137 55.924 11.31 56.028 11.076C56.132 10.842 56.184 10.595 56.184 10.335V6.214H57.159V13H56.197L56.158 11.57L56.314 11.492C56.21 11.7953 56.0367 12.0727 55.794 12.324C55.5513 12.5667 55.261 12.7617 54.923 12.909C54.5937 13.0563 54.2513 13.13 53.896 13.13ZM61.2804 13.13C60.6997 13.13 60.1797 13.0217 59.7204 12.805C59.2611 12.5883 58.8971 12.3023 58.6284 11.947L59.3174 11.349C59.5687 11.6523 59.8634 11.882 60.2014 12.038C60.5481 12.194 60.9337 12.272 61.3584 12.272C61.5751 12.272 61.7701 12.2503 61.9434 12.207C62.1167 12.155 62.2684 12.0813 62.3984 11.986C62.5284 11.8907 62.6281 11.778 62.6974 11.648C62.7667 11.518 62.8014 11.375 62.8014 11.219C62.8014 10.933 62.6757 10.6947 62.4244 10.504C62.3117 10.426 62.1514 10.348 61.9434 10.27C61.7354 10.1833 61.4841 10.101 61.1894 10.023C60.7041 9.88433 60.3011 9.74567 59.9804 9.607C59.6597 9.45967 59.4084 9.29067 59.2264 9.1C59.0964 8.944 58.9967 8.775 58.9274 8.593C58.8667 8.411 58.8364 8.21167 58.8364 7.995C58.8364 7.71767 58.8927 7.462 59.0054 7.228C59.1267 6.994 59.2914 6.79033 59.4994 6.617C59.7161 6.435 59.9674 6.30067 60.2534 6.214C60.5481 6.11867 60.8644 6.071 61.2024 6.071C61.5231 6.071 61.8394 6.11433 62.1514 6.201C62.4634 6.28767 62.7537 6.41333 63.0224 6.578C63.2911 6.74267 63.5207 6.93767 63.7114 7.163L63.1134 7.813C62.9487 7.63967 62.7667 7.48367 62.5674 7.345C62.3681 7.20633 62.1557 7.098 61.9304 7.02C61.7137 6.942 61.4884 6.903 61.2544 6.903C61.0464 6.903 60.8514 6.929 60.6694 6.981C60.4961 7.033 60.3444 7.10667 60.2144 7.202C60.0931 7.28867 59.9977 7.397 59.9284 7.527C59.8677 7.657 59.8374 7.8 59.8374 7.956C59.8374 8.086 59.8634 8.203 59.9154 8.307C59.9674 8.411 60.0411 8.502 60.1364 8.58C60.2577 8.67533 60.4267 8.76633 60.6434 8.853C60.8687 8.931 61.1461 9.01333 61.4754 9.1C61.8567 9.204 62.1774 9.31233 62.4374 9.425C62.7061 9.529 62.9271 9.65467 63.1004 9.802C63.3344 9.97533 63.4991 10.1747 63.5944 10.4C63.6984 10.6253 63.7504 10.881 63.7504 11.167C63.7504 11.5483 63.6421 11.8863 63.4254 12.181C63.2174 12.4757 62.9271 12.7097 62.5544 12.883C62.1817 13.0477 61.7571 13.13 61.2804 13.13ZM66.2141 13V4.433H67.1891V13H66.2141ZM64.6801 7.15V6.214H68.9051V7.15H64.6801Z" fill="black" fill-opacity="0.5"/>
<path d="M86.875 9.00001L84.1667 6.29167M86.875 9.00001L84.1667 11.7083M86.875 9.00001H77.125" stroke="black" stroke-opacity="0.5" stroke-linecap="round" stroke-linejoin="round"/>
</svg>
